<svg xmlns="http://www.w3.org/2000/svg"><symbol id="icon-logo" viewBox="0 0 32 32"><path fill="none" stroke="#fff" style="stroke:var(--color1,#fff)" stroke-linejoin="round" stroke-linecap="round" stroke-width="2.667" d="M26.427 2.667H5.574a2.907 2.907 0 0 0-2.907 2.907v20.853a2.907 2.907 0 0 0 2.907 2.907v0h20.853a2.907 2.907 0 0 0 2.907-2.907v0V5.574a2.907 2.907 0 0 0-2.907-2.907v0zm-17.094 0v26.667M22.667 2.667v26.667M2.667 16h26.667M2.667 9.333h6.667M2.667 22.667h6.667m13.333 0h6.667M22.667 9.333h6.667"/></symbol><symbol id="icon-search" viewBox="0 0 30 32"><path fill="none" stroke="#fff" style="stroke:var(--color1,#fff)" stroke-linejoin="round" stroke-linecap="round" stroke-width="1.684" d="M14.316 16a6.737 6.737 0 1 0 0-13.474v0a6.737 6.737 0 1 0 0 13.474v0zm8.421 1.684-3.663-3.663"/></symbol><symbol id="icon-love" viewBox="0 0 34 32"><path fill="#ff6b08" style="fill:var(--color1,#ff6b08)" d="m17.231 31.705-2.412-2.412C5.859 21.367.001 16.025.001 9.478.001 4.136 4.136.001 9.478.001c2.929 0 5.858 1.378 7.754 3.618 1.895-2.24 4.825-3.618 7.754-3.618 5.342 0 9.477 4.135 9.477 9.477 0 6.548-5.858 11.889-14.818 19.815l-2.412 2.412z"/></symbol><symbol id="icon-close" viewBox="0 0 32 32"><path d="M23.734 10.304 22.23 8.8l-5.963 5.962L10.305 8.8l-1.504 1.504 5.962 5.962-5.962 5.963 1.504 1.504 5.962-5.963 5.963 5.963 1.504-1.504-5.963-5.963 5.963-5.962z"/></symbol><symbol id="icon-dots" viewBox="0 0 32 32"><path d="M4.803 16a2.526 2.526 0 1 1-2.526-2.526A2.529 2.529 0 0 1 4.803 16zm24.421-2.526A2.526 2.526 0 1 0 31.75 16a2.529 2.529 0 0 0-2.526-2.526zm-13.474 0A2.526 2.526 0 1 0 18.276 16a2.529 2.529 0 0 0-2.526-2.526z"/></symbol><symbol id="icon-arrow-first" viewBox="0 0 32 32"><path d="m11.831 8.025-6.269 6.563c-.375.363-.563.856-.563 1.4s.188 1.031.563 1.4l6.269 6.588c.744.781 1.956.781 2.7 0s.744-2.044 0-2.825l-3.006-3.15h13.562c1.056 0 1.913-.894 1.913-2s-.856-2-1.913-2H11.524l3.012-3.15a2.067 2.067 0 0 0 0-2.825 1.855 1.855 0 0 0-2.706 0z"/></symbol><symbol id="icon-arrow-last" viewBox="0 0 32 32"><path d="m20.169 8.025 6.269 6.563c.375.363.563.856.563 1.4s-.188 1.031-.563 1.4l-6.269 6.588c-.744.781-1.956.781-2.7 0s-.744-2.044 0-2.825l3.012-3.15H6.918c-1.063 0-1.919-.894-1.919-2s.856-2 1.913-2h13.563l-3.012-3.15a2.067 2.067 0 0 1 0-2.825 1.855 1.855 0 0 1 2.706 0z"/></symbol><symbol id="icon-github" viewBox="0 0 24 24"><path d="M12 0C5.374 0 0 5.373 0 12c0 5.302 3.438 9.8 8.207 11.387.599.111.793-.261.793-.577v-2.234c-3.338.726-4.033-1.416-4.033-1.416-.546-1.387-1.333-1.756-1.333-1.756-1.089-.745.083-.729.083-.729 1.205.084 1.839 1.237 1.839 1.237 1.07 1.834 2.807 1.304 3.492.997.107-.775.418-1.305.762-1.604-2.665-.305-5.467-1.334-5.467-5.931 0-1.311.469-2.381 1.236-3.221-.124-.303-.535-1.524.117-3.176 0 0 1.008-.322 3.301 1.23A11.509 11.509 0 0 1 12 5.803c1.02.005 2.047.138 3.006.404 2.291-1.552 3.297-1.23 3.297-1.23.653 1.653.242 2.874.118 3.176.77.84 1.235 1.911 1.235 3.221 0 4.609-2.807 5.624-5.479 5.921.43.372.823 1.102.823 2.222v3.293c0 .319.192.694.801.576C20.566 21.797 24 17.3 24 12c0-6.627-5.373-12-12-12z"/></symbol><symbol id="icon-youtub" viewBox="0 0 32 32"><path d="M30.662 5.003C26.174 4.358 21.214 4 16 4S5.826 4.358 1.338 5.003C.478 8.369 0 12.089 0 16s.477 7.63 1.338 10.997C5.827 27.642 10.786 28 16 28s10.174-.358 14.662-1.003C31.522 23.631 32 19.911 32 16s-.477-7.63-1.338-10.997zM12 22V10l10 6-10 6z"/></symbol><symbol id="icon-close_40px" viewBox="0 0 32 32"><path d="M23.734 10.304 22.23 8.8l-5.963 5.962L10.305 8.8l-1.504 1.504 5.962 5.962-5.962 5.963 1.504 1.504 5.962-5.963 5.963 5.963 1.504-1.504-5.963-5.963 5.963-5.962z"/></symbol></svg>