<svg xmlns="http://www.w3.org/2000/svg">
   <symbol id="icon-logo" viewBox="0 0 32 32">
      <path fill="none" stroke="#fff" style="stroke: var(--color1, #fff)" stroke-linejoin="round"
         stroke-linecap="round" stroke-miterlimit="4" stroke-width="2.6667"
         d="M26.427 2.667h-20.853c-1.605 0-2.907 1.301-2.907 2.907v0 20.853c0 1.605 1.301 2.907 2.907 2.907v0h20.853c1.605 0 2.907-1.301 2.907-2.907v0-20.853c0-1.605-1.301-2.907-2.907-2.907v0zM9.333 2.667v26.667M22.667 2.667v26.667M2.667 16h26.667M2.667 9.333h6.667M2.667 22.667h6.667M22.667 22.667h6.667M22.667 9.333h6.667"></path>
   </symbol>
   <symbol id="icon-search" viewBox="0 0 30 32">
      <path fill="none" stroke="#fff" style="stroke: var(--color1, #fff)" stroke-linejoin="round"
         stroke-linecap="round" stroke-miterlimit="4" stroke-width="1.6842"
         d="M14.316 16c3.721 0 6.737-3.016 6.737-6.737s-3.016-6.737-6.737-6.737v0c-3.721 0-6.737 3.016-6.737 6.737s3.016 6.737 6.737 6.737v0zM22.737 17.684l-3.663-3.663"></path>
   </symbol>
   <symbol id="icon-love" viewBox="0 0 34 32">
      <path fill="#ff6b08" style="fill: var(--color1, #ff6b08)"
         d="M17.231 31.705l-2.412-2.412c-8.96-7.926-14.818-13.268-14.818-19.815 0-5.342 4.135-9.477 9.477-9.477 2.929 0 5.858 1.378 7.754 3.618 1.895-2.24 4.825-3.618 7.754-3.618 5.342 0 9.477 4.135 9.477 9.477 0 6.548-5.858 11.889-14.818 19.815l-2.412 2.412z"></path>
   </symbol>
   <symbol id="icon-close" viewBox="0 0 32 32">
      <path
         d="M23.734 10.304l-1.504-1.504-5.963 5.962-5.962-5.962-1.504 1.504 5.962 5.962-5.962 5.963 1.504 1.504 5.962-5.963 5.963 5.963 1.504-1.504-5.963-5.963 5.963-5.962z"></path>
   </symbol>
   <symbol id="icon-dots" viewBox="0 0 32 32">
      <path
         d="M4.803 16c0 1.395-1.131 2.526-2.526 2.526s-2.526-1.131-2.526-2.526c0-1.395 1.131-2.526 2.526-2.526v0c1.395 0.002 2.525 1.132 2.526 2.526v0zM29.224 13.474c-1.395 0-2.526 1.131-2.526 2.526s1.131 2.526 2.526 2.526c1.395 0 2.526-1.131 2.526-2.526v0c-0.002-1.395-1.132-2.525-2.526-2.526h-0zM15.75 13.474c-1.395 0-2.526 1.131-2.526 2.526s1.131 2.526 2.526 2.526c1.395 0 2.526-1.131 2.526-2.526v0c-0.002-1.395-1.132-2.525-2.526-2.526h-0z"></path>
   </symbol>
   <symbol id="icon-arrow-first" viewBox="0 0 32 32">
      <path
         d="M11.831 8.025l-6.269 6.563c-0.375 0.363-0.563 0.856-0.563 1.4s0.188 1.031 0.563 1.4l6.269 6.588c0.744 0.781 1.956 0.781 2.7 0s0.744-2.044 0-2.825l-3.006-3.15h13.562c1.056 0 1.913-0.894 1.913-2s-0.856-2-1.913-2h-13.563l3.012-3.15c0.744-0.781 0.744-2.044 0-2.825-0.75-0.781-1.956-0.781-2.706 0z"></path>
   </symbol>

   <symbol id="icon-arrow-last" viewBox="0 0 32 32">
      <path
         d="M20.169 8.025l6.269 6.563c0.375 0.363 0.563 0.856 0.563 1.4s-0.188 1.031-0.563 1.4l-6.269 6.588c-0.744 0.781-1.956 0.781-2.7 0s-0.744-2.044 0-2.825l3.012-3.15h-13.563c-1.063 0-1.919-0.894-1.919-2s0.856-2 1.913-2h13.563l-3.012-3.15c-0.744-0.781-0.744-2.044 0-2.825 0.75-0.781 1.956-0.781 2.706 0z"></path>
   </symbol>
   <symbol id="icon-github" viewBox="0 0 24 24">
      <path
         d="M12 0c-6.626 0-12 5.373-12 12 0 5.302 3.438 9.8 8.207 11.387.599.111.793-.261.793-.577v-2.234c-3.338.726-4.033-1.416-4.033-1.416-.546-1.387-1.333-1.756-1.333-1.756-1.089-.745.083-.729.083-.729 1.205.084 1.839 1.237 1.839 1.237 1.07 1.834 2.807 1.304 3.492.997.107-.775.418-1.305.762-1.604-2.665-.305-5.467-1.334-5.467-5.931 0-1.311.469-2.381 1.236-3.221-.124-.303-.535-1.524.117-3.176 0 0 1.008-.322 3.301 1.23.957-.266 1.983-.399 3.003-.404 1.02.005 2.047.138 3.006.404 2.291-1.552 3.297-1.23 3.297-1.23.653 1.653.242 2.874.118 3.176.77.84 1.235 1.911 1.235 3.221 0 4.609-2.807 5.624-5.479 5.921.43.372.823 1.102.823 2.222v3.293c0 .319.192.694.801.576 4.765-1.589 8.199-6.086 8.199-11.386 0-6.627-5.373-12-12-12z" />
   </symbol>
   <symbol id="icon-youtub" viewBox="0 0 32 32">
      <path
         d="M30.662 5.003c-4.488-0.645-9.448-1.003-14.662-1.003s-10.174 0.358-14.662 1.003c-0.86 3.366-1.338 7.086-1.338 10.997s0.477 7.63 1.338 10.997c4.489 0.645 9.448 1.003 14.662 1.003s10.174-0.358 14.662-1.003c0.86-3.366 1.338-7.086 1.338-10.997s-0.477-7.63-1.338-10.997zM12 22v-12l10 6-10 6z"></path>
   </symbol>
   <symbol id="icon-close_40px" viewBox="0 0 32 32">
      <path
         d="M23.734 10.304l-1.504-1.504-5.963 5.962-5.962-5.962-1.504 1.504 5.962 5.962-5.962 5.963 1.504 1.504 5.962-5.963 5.963 5.963 1.504-1.504-5.963-5.963 5.963-5.962z"></path>
   </symbol>
</svg>